<?xml version="1.0" encoding="UTF-8"?>
<svg xmlns="http://www.w3.org/2000/svg" width="190pt" height="48pt" viewBox="0 0 190 48"
  version="1.1">
  <g id="surface1">
    <path style=" stroke:none;fill-rule:evenodd;fill:rgb(3.921569%,34.117647%,83.137255%);fill-opacity:1;" d="M 67.136719 23.691406 L 73.882812 36 L 69.046875 36 L 64.503906 26.660156 L 59.996094 36 L 55.355469 36 L 61.9375 23.855469 L 55.882812 13.195312 L 60.71875 13.195312 L 64.570312 21.085938 L 68.585938 13.195312 L 73.226562 13.195312 Z M 94.828125 13.195312 L 87.523438 27.355469 L 87.523438 36 L 83.113281 36 L 83.113281 27.386719 L 75.804688 13.195312 L 80.609375 13.195312 L 85.417969 23.789062 L 90.222656 13.195312 Z M 112.613281 13.195312 L 112.613281 16.5625 L 102.117188 32.4375 L 112.714844 32.4375 L 112.253906 36 L 97.046875 36 L 97.046875 32.667969 L 107.742188 16.660156 L 98.132812 16.660156 L 98.132812 13.195312 Z M 141.242188 36 L 141.242188 25.804688 L 133.144531 25.804688 L 133.144531 36 L 128.800781 36 L 128.800781 13.195312 L 133.144531 13.195312 L 133.144531 22.339844 L 141.242188 22.339844 L 141.242188 13.195312 L 145.617188 13.195312 L 145.617188 36 Z M 166.59375 18.542969 L 166.59375 36 L 162.941406 36 L 162.710938 33.558594 C 161.429688 35.539062 159.78125 36.496094 157.378906 36.496094 C 154.21875 36.496094 152.542969 34.449219 152.542969 31.082031 L 152.542969 18.542969 L 156.753906 18.542969 L 156.753906 30.554688 C 156.753906 32.601562 157.414062 33.292969 158.859375 33.292969 C 160.308594 33.292969 161.492188 32.335938 162.382812 30.820312 L 162.382812 18.542969 Z M 182.570312 18.046875 C 186.617188 18.046875 189.023438 21.414062 189.023438 27.253906 C 189.023438 32.699219 186.421875 36.496094 182.144531 36.496094 C 180.234375 36.496094 178.652344 35.636719 177.535156 34.21875 L 177.273438 36 L 173.550781 36 L 173.550781 11.546875 L 177.765625 11.085938 L 177.765625 20.523438 C 178.882812 18.972656 180.5625 18.046875 182.570312 18.046875 Z M 180.992188 33.328125 C 183.128906 33.328125 184.609375 31.644531 184.609375 27.253906 C 184.609375 22.601562 183.230469 21.214844 181.222656 21.214844 C 179.707031 21.214844 178.589844 22.238281 177.765625 23.59375 L 177.765625 31.3125 C 178.523438 32.566406 179.675781 33.328125 180.992188 33.328125 Z M 180.992188 33.328125 "/>
    <path style=" stroke:none;fill-rule:evenodd;fill:rgb(1.568627%,71.372549%,78.431373%);fill-opacity:1;" d="M 0 13.5 L 19.449219 23.953125 L 19.449219 48 L 0 36.71875 Z M 0 13.5 "/>
    <path style=" stroke:none;fill-rule:evenodd;fill:rgb(3.921569%,34.117647%,83.137255%);fill-opacity:1;" d="M 40.394531 13.5 L 20.945312 23.953125 L 20.945312 48 L 40.394531 36.71875 Z M 40.394531 13.5 "/>
    <path style=" stroke:none;fill-rule:evenodd;fill:rgb(3.921569%,58.039216%,87.058824%);fill-opacity:1;" d="M 0 11.6875 L 20.273438 0 L 40.394531 11.6875 L 20.273438 22.5 Z M 0 11.6875 "/>
  </g>
</svg>
